<svg width="104" height="104" viewBox="0 0 104 104" fill="none" xmlns="http://www.w3.org/2000/svg">
<circle cx="52" cy="52" r="52" fill="#E0AAFF"/>
<path d="M71.852 48.4084L74.2412 50.7867C75.2529 51.7938 75.2529 53.4222 74.2412 54.4185L53.3296 75.2447C52.318 76.2518 50.6821 76.2518 49.6811 75.2447L28.7588 54.4185C27.7471 53.4115 27.7471 51.7831 28.7588 50.7867L31.148 48.4084C32.1705 47.3907 33.8387 47.4121 34.8396 48.4513L47.195 61.3606V30.5711C47.195 29.1463 48.3466 28 49.778 28H53.222C54.6534 28 55.805 29.1463 55.805 30.5711V61.3606L68.1604 48.4513C69.1613 47.4014 70.8295 47.38 71.852 48.4084V48.4084Z" fill="white"/>
</svg>
