<svg width="72" height="72" viewBox="0 0 72 72" fill="none" xmlns="http://www.w3.org/2000/svg">
<rect width="54.1288" height="28.7967" transform="matrix(0.964059 0.265689 -0.260475 0.965481 7.69214 0.0324974)" fill="#E0AAFF"/>
<path d="M18.6591 22.6294C18.0528 24.3667 17.0211 25.5815 15.5639 26.2739C14.1142 26.9684 12.4253 27.0499 10.4972 26.5185C8.38834 25.9374 6.91888 24.7706 6.08885 23.0184C5.26838 21.2607 5.1929 19.141 5.8624 16.6595L6.13407 15.6525C6.56141 14.0685 7.21655 12.7499 8.09949 11.6966C8.98243 10.6434 10.0263 9.93838 11.2311 9.58161C12.4455 9.21937 13.7381 9.22714 15.1089 9.60492C17.0068 10.128 18.3984 11.0585 19.2836 12.3964C20.1687 13.7344 20.4534 15.3485 20.1377 17.2387L16.7484 16.3047C16.9525 15.2183 16.8626 14.367 16.4786 13.7506C16.1042 13.1288 15.3973 12.6747 14.358 12.3882C13.2282 12.0769 12.271 12.2507 11.4863 12.9096C10.7113 13.5631 10.0862 14.7401 9.61126 16.4406L9.27549 17.6852C8.79524 19.4653 8.71159 20.8401 9.02453 21.8096C9.345 22.7813 10.0852 23.4269 11.2451 23.7466C12.292 24.0351 13.1356 24.0123 13.776 23.6783C14.4259 23.3388 14.9238 22.6778 15.2698 21.6953L18.6591 22.6294ZM29.6066 27.8952L23.6641 26.2575L21.6186 29.3404L18.0147 28.3472L28.5823 13.5612L31.723 14.4268L33.4358 32.5972L29.8319 31.604L29.6066 27.8952ZM25.3209 23.7604L29.4332 24.8937L29.0293 18.1577L25.3209 23.7604ZM42.6886 28.6684L39.9885 27.9242L38.3616 33.9547L34.9723 33.0206L39.4166 16.5471L45.5286 18.2316C47.4718 18.7671 48.8536 19.6139 49.674 20.7719C50.4944 21.9299 50.691 23.3009 50.2636 24.8849C49.9604 26.0088 49.4623 26.8804 48.7692 27.4998C48.0858 28.1137 47.1906 28.5072 46.0839 28.6803L47.8265 36.393L47.7837 36.5514L44.1459 35.5488L42.6886 28.6684ZM40.7303 25.1749L43.4643 25.9283C44.3153 26.1629 45.0324 26.1296 45.6153 25.8283C46.2003 25.5195 46.5956 24.9842 46.8011 24.2224C47.0107 23.4455 46.9534 22.7733 46.6291 22.2058C46.3123 21.6404 45.6982 21.2321 44.7869 20.9809L42.0642 20.2305L40.7303 25.1749Z" fill="#F8F9FA"/>
<rect width="47.5851" height="24.2606" transform="matrix(0.964059 0.265689 -0.260475 0.965481 24.3597 31.0285)" fill="#5A189A"/>
<path d="M24.6349 49.4446L31.8314 51.428L31.0958 54.1547L20.51 51.2373L24.9543 34.7638L28.3436 35.6978L24.6349 49.4446ZM49.6734 41.5762L46.7461 52.4266C46.2597 54.2293 45.3103 55.4992 43.8976 56.2363C42.4926 56.9755 40.8147 57.0763 38.8639 56.5387C36.9434 56.0094 35.5555 55.0799 34.7005 53.7502C33.8455 52.4206 33.6468 50.8626 34.1044 49.0763L37.0653 38.1015L40.4546 39.0356L37.5212 49.9085C37.2302 50.9872 37.2736 51.846 37.6515 52.4849C38.0389 53.1184 38.6882 53.5608 39.5996 53.8119C41.5051 54.3371 42.7436 53.6006 43.315 51.6025L46.2728 40.639L49.6734 41.5762ZM61.5847 60.3207C60.7772 60.8842 59.7612 61.216 58.5366 61.3161C57.3141 61.4087 56.0249 61.2681 54.6692 60.8945C53.2457 60.5022 52.0789 59.8484 51.1687 58.933C50.2681 58.0122 49.6838 56.8788 49.4159 55.5326C49.1554 54.1886 49.2334 52.715 49.6497 51.1117L49.9519 49.9916C50.3955 48.3473 51.054 47.0012 51.9274 45.9534C52.8103 44.9002 53.857 44.2 55.0673 43.8528C56.2871 43.5002 57.5975 43.517 58.9984 43.903C60.9491 44.4406 62.3481 45.3286 63.1954 46.567C64.0448 47.7978 64.331 49.3313 64.0541 51.1674L60.7552 50.2583C60.8589 49.2739 60.71 48.4914 60.3083 47.9107C59.9142 47.332 59.2652 46.9182 58.3614 46.6691C57.2091 46.3515 56.2146 46.5434 55.3781 47.2448C54.5415 47.9462 53.8885 49.1519 53.419 50.8621L53.1351 51.9143C52.6691 53.6416 52.6447 55.0368 53.0619 56.0999C53.4791 57.163 54.3203 57.8689 55.5856 58.2176C56.8585 58.5684 57.8393 58.547 58.5281 58.1533L59.2943 55.3135L56.21 54.4635L56.8846 51.963L63.3581 53.7471L61.5847 60.3207Z" fill="#F8F9FA"/>
</svg>
