<svg width="49" height="48" viewBox="0 0 49 48" fill="none" xmlns="http://www.w3.org/2000/svg">
<rect width="36.32" height="18.9558" transform="matrix(0.965488 0.260263 -0.265906 0.96405 5.52695 0.0213623)" fill="#E0AAFF"/>
<path d="M11.9148 13.5159C11.5553 14.5282 10.9483 15.2378 10.0939 15.6447C9.24388 16.0528 8.25568 16.105 7.12928 15.8014C5.89728 15.4693 5.04098 14.7948 4.5604 13.7778C4.08543 12.7577 4.04729 11.5249 4.44598 10.0795L4.60775 9.49294C4.86223 8.57031 5.24922 7.80141 5.76871 7.18622C6.2882 6.57104 6.90085 6.15798 7.60665 5.94703C8.31807 5.73287 9.07418 5.73373 9.87498 5.9496C10.9838 6.24849 11.7952 6.78583 12.3092 7.5616C12.8232 8.33738 12.9852 9.2755 12.7951 10.376L10.8151 9.84223C10.9375 9.2097 10.8873 8.71472 10.6645 8.35728C10.4472 7.99663 10.035 7.73446 9.42782 7.57078C8.76782 7.39287 8.20738 7.49668 7.74651 7.88221C7.29124 8.26454 6.92227 8.95098 6.63961 9.94153L6.43966 10.6665C6.15367 11.7033 6.10083 12.5033 6.28115 13.0664C6.46586 13.6307 6.89702 14.0041 7.57462 14.1868C8.18622 14.3517 8.67979 14.336 9.05534 14.1399C9.43649 13.9406 9.72966 13.5547 9.93483 12.9822L11.9148 13.5159ZM18.304 16.5481L14.8324 15.6122L13.627 17.4114L11.5216 16.8438L17.7454 8.21281L19.5802 8.70741L20.5307 19.2724L18.4253 18.7048L18.304 16.5481ZM15.8087 14.1549L18.2111 14.8025L17.9939 10.8853L15.8087 14.1549ZM25.9545 16.9607L24.3771 16.5355L23.4083 20.0481L21.4283 19.5143L24.0749 9.919L27.6455 10.8815C28.7807 11.1875 29.5866 11.6762 30.0632 12.3475C30.5399 13.0188 30.651 13.8158 30.3965 14.7384C30.2159 15.393 29.922 15.9014 29.5149 16.2637C29.1133 16.6227 28.5886 16.8542 27.9407 16.958L28.9381 21.4396L28.9127 21.5319L26.7875 20.959L25.9545 16.9607ZM24.8188 14.9341L26.416 15.3646C26.9132 15.4987 27.3328 15.4772 27.6746 15.3003C28.0177 15.1191 28.2505 14.8065 28.3728 14.3628C28.4977 13.9103 28.466 13.5194 28.2779 13.1902C28.0942 12.8622 27.7362 12.6265 27.2038 12.4829L25.6132 12.0542L24.8188 14.9341Z" fill="#F8F9FA"/>
<rect x="0.349791" y="0.612156" width="30.9292" height="14.9698" transform="matrix(0.965488 0.260263 -0.265906 0.96405 16.9017 20.3256)" fill="#5A189A" stroke="black"/>
<path d="M16.8231 31.1598L21.0273 32.2931L20.5892 33.8813L14.405 32.2143L17.0516 22.6189L19.0316 23.1527L16.8231 31.1598ZM31.4924 26.5117L29.7492 32.8317C29.4596 33.8817 28.9006 34.6231 28.0721 35.0559C27.2481 35.4899 26.2663 35.5533 25.1267 35.2461C24.0047 34.9436 23.1955 34.4069 22.6991 33.6358C22.2026 32.8648 22.0908 31.9591 22.3636 30.9187L24.1268 24.5262L26.1068 25.0599L24.36 31.3931C24.1867 32.0214 24.2097 32.5208 24.4289 32.8914C24.6537 33.2588 25.0323 33.5143 25.5647 33.6578C26.6779 33.9579 27.4045 33.526 27.7445 32.3621L29.5058 25.9762L31.4924 26.5117ZM38.4071 37.3817C37.9332 37.7118 37.3379 37.9076 36.6212 37.9694C35.9058 38.0267 35.1521 37.9486 34.3601 37.7351C33.5285 37.5109 32.8478 37.1339 32.3179 36.604C31.7937 36.0709 31.4551 35.4132 31.3022 34.631C31.1536 33.8498 31.2034 32.9924 31.4515 32.0586L31.6315 31.4062C31.8956 30.4484 32.2847 29.6635 32.7986 29.0516C33.318 28.4364 33.9323 28.0261 34.6413 27.8207C35.3559 27.6122 36.1224 27.6182 36.9408 27.8388C38.0804 28.146 38.8963 28.6586 39.3884 29.3765C39.8817 30.0901 40.0448 30.9813 39.8776 32.0502L37.9504 31.5307C38.0139 30.9578 37.929 30.503 37.6957 30.1663C37.4668 29.8309 37.0883 29.592 36.5603 29.4496C35.8871 29.2682 35.3048 29.3826 34.8135 29.793C34.3221 30.2033 33.9367 30.9066 33.6572 31.9027L33.4882 32.5156C33.2106 33.5217 33.1924 34.3333 33.4334 34.9506C33.6744 35.5678 34.1646 35.976 34.9038 36.1753C35.6474 36.3758 36.2212 36.3605 36.6252 36.1296L37.0815 34.4754L35.2797 33.9897L35.6814 32.5333L39.4632 33.5528L38.4071 37.3817Z" fill="#F8F9FA"/>
</svg>
